# AST/ASF file generated using VICON BodyLanguage
# -----------------------------------------------
:version 1.10
:name VICON
:units
  mass 1.0
  length 0.45
  angle deg
:documentation
   .ast/.asf automatically generated from VICON data using
   VICON BodyBuilder and BodyLanguage model FoxedUp or BRILLIANT.MOD
:root
   order TX TY TZ RX RY RZ
   axis XYZ
   position 0 0 0  
   orientation 0 0 0 
:bonedata
  begin
     id 1 
     name lhipjoint
     direction 0.650112 -0.723553 0.232005 
     length 2.45805 
     axis 0 0 0  XYZ
  end
  begin
     id 2 
     name lfemur
     direction 0.34202 -0.939693 0  
     length 7.00073  
     axis 0 0 20  XYZ
    dof rx ry rz
    limits (-160.0 20.0)
           (-70.0 70.0)
           (-60.0 70.0)
  end
  begin
     id 3 
     name ltibia
     direction 0.34202 -0.939693 0   
     length 7.8748   
     axis 0 0 20   XYZ
    dof rx
    limits (-10.0 170.0)
  end
  begin
     id 4 
     name lfoot
     direction 0.0542825 -0.14914 0.987325   
     length 1.75978   
     axis -90 7.62852e-016 20   XYZ
    dof rx rz
    limits (-45.0 90.0)
           (-70.0 20.0)
  end
  begin
     id 5 
     name ltoes
     direction 1.53509e-011 -4.21906e-011 1   
     length 0.893912   
     axis -90 7.62852e-016 20   XYZ
    dof rx
    limits (-90.0 20.0)
  end
  begin
     id 6 
     name rhipjoint
     direction -0.637897 -0.733345 0.235145   
     length 2.42522  
     axis 0 0 0  XYZ 
  end
  begin
     id 7 
     name rfemur
     direction -0.34202 -0.939693 0   
     length 7.02549   
     axis 0 0 -20   XYZ
    dof rx ry rz
    limits (-160.0 20.0)
           (-70.0 70.0)
           (-70.0 60.0)
  end
  begin
     id 8 
     name rtibia
     direction -0.34202 -0.939693 0   
     length 7.71512   
     axis 0 0 -20   XYZ
    dof rx
    limits (-10.0 170.0)
 end
 begin
     id 9 
     name rfoot
     direction -0.0822618 -0.226012 0.970645   
     length 1.90014  
     axis -90 -7.62852e-016 -20   XYZ
    dof rx rz
    limits (-45.0 90.0)
           (-20.0 70.0)
  end
  begin
     id 10 
     name rtoes
     direction -1.53542e-011 -4.21872e-011 1   
     length 0.957341   
     axis -90 -7.62852e-016 -20   XYZ
    dof rx
    limits (-90.0 20.0)
  end
  begin
     id 11 
     name lowerback
     direction -0.0022947 0.999774 -0.0211557   
     length 1.89909   
     axis 0 0 0   XYZ
    dof rx ry rz
    limits (-20.0 45.0)
           (-30.0 30.0)
           (-30.0 30.0)
  end
  begin
     id 12 
     name upperback
     direction 0.0107737 0.998635 0.0511027   
     length 1.8853   
     axis 0 0 0   XYZ
    dof rx ry rz
    limits (-20.0 45.0)
           (-30.0 30.0)
           (-30.0 30.0)
  end
  begin
     id 13 
     name thorax
     direction 0.011824 0.998136 0.0598754   
     length 1.88911   
     axis 0 0 0   XYZ
    dof rx ry rz
    limits (-20.0 45.0)
           (-30.0 30.0)
           (-30.0 30.0)
  end
  begin
     id 14 
     name lowerneck
     direction -0.0685355 0.990319 0.120714   
     length 1.91222   
     axis 0 0 0   XYZ
    dof rx ry rz
    limits (-20.0 45.0)
           (-30.0 30.0)
           (-30.0 30.0)
  end
  begin
     id 15 
     name upperneck
     direction 0.0886204 0.955665 -0.280805   
     length 1.92526   
     axis 0 0 0   XYZ
    dof rx ry rz
    limits (-20.0 45.0)
           (-30.0 30.0)
           (-30.0 30.0)
  end
  begin
     id 16
     name head
     direction 0.0233423 0.993502 -0.111393  
     length 1.96056  
     axis 0 0 0   XYZ
    dof rx ry rz
    limits (-20.0 45.0)
           (-30.0 30.0)
           (-30.0 30.0)
  end
  begin
     id 17 
     name lclavicle
     direction 0.941873 0.32922 0.0670041  
     length 3.31705  
     axis 0 0 0   XYZ
    dof ry rz
    limits (-20.0 10.0)
           (0.0 20.0)
  end
  begin
     id 18 
     name lhumerus
     direction 1 -4.4898e-011 3.38707e-028   
     length 5.29277   
     axis 180 -30 -90   XYZ
    dof rx ry rz
    limits (-60.0 90.0)
           (-90.0 90.0)
           (-90.0 90.0)
  end
  begin
     id 19
     name lradius
     direction 1 -4.48952e-011 1.63213e-028   
     length 2.85226   
     axis 180 -30 -90   XYZ
    dof rx
    limits (-10.0 170.0)
  end
  begin
     id 20
     name lwrist
     direction 1 -4.49001e-011 1.27856e-027   
     length 1.42613   
     axis -1.61767e-015 90 90   XYZ
    dof ry
    limits (-180.0 0.0)
 end
  begin
     id 21 
     name lhand
     direction 1 -4.48976e-011 2.55931e-027   
     length 0.602097   
     axis -1.63363e-015 90 90   XYZ
    dof rx rz
    limits (-90.0 90.0)
           (-45.0 45.0)
  end
  begin
     id 22 
     name lfingers
     direction 1 -4.48986e-011 5.11684e-027   
     length 0.485426   
     axis -3.26723e-015 90 90   XYZ
    dof rx
    limits (0.0 90.0)
  end
  begin
     id 23
     name lthumb
     direction 0.707107 -6.34915e-011 0.707107   
     length 0.696978   
     axis -90 45 -2.25915e-014   XYZ
    dof rx rz
    limits (-45.0 45.0)
           (-45.0 45.0)
  end
  begin
     id 24 
     name rclavicle
     direction -0.939974 0.327078 0.0973096   
     length 3.10337  
     axis 0 0 0   XYZ 
    dof ry rz
    limits (-10.0 20.0)
           (-20.0 0.0)
  end
  begin
     id 25 
     name rhumerus
     direction -1 -4.48975e-011 1.83745e-027  
     length 5.13304   
     axis 180 30 90   XYZ
    dof rx ry rz
    limits (-90.0 60.0)
           (-90.0 90.0)
           (-90.0 90.0)
  end
  begin
     id 26 
     name rradius
     direction -1 -4.48977e-011 7.1775e-029   
     length 2.74305   
     axis 180 30 90   XYZ
    dof rx
    limits (-10.0 170.0)
  end
  begin
     id 27 
     name rwrist
     direction -1 -4.48977e-011 1.27963e-027   
     length 1.37152   
     axis -1.61767e-015 -90 -90   XYZ
    dof ry
    limits (-180.0 0.0)
  end
  begin
     id 28
     name rhand
     direction -1 -4.4888e-011 2.56782e-027   
     length 0.767976   
     axis -1.63363e-015 -90 -90   XYZ
    dof rx rz
    limits (-90.0 90.0)
           (-45.0 45.0)
  end
  begin
     id 29
     name rfingers
     direction -1 -4.48947e-011 5.12384e-027   
     length 0.619162   
     axis -3.26723e-015 -90 -90   XYZ
    dof rx
    limits (0.0 90.0)
  end
  begin
     id 30
     name rthumb
     direction -0.707107 -6.34857e-011 0.707107   
     length 0.888997   
     axis -90 -45 2.25915e-014   XYZ
    dof rx rz
    limits (-45.0 45.0)
           (-45.0 45.0)
  end
:hierarchy
  begin
    root lhipjoint rhipjoint lowerback
    lhipjoint lfemur
    lfemur ltibia
    ltibia lfoot
    lfoot ltoes
    rhipjoint rfemur
    rfemur rtibia
    rtibia rfoot
    rfoot rtoes
    lowerback upperback
    upperback thorax
    thorax lowerneck lclavicle rclavicle
    lowerneck upperneck
    upperneck head
    lclavicle lhumerus
    lhumerus lradius
    lradius lwrist
    lwrist lhand lthumb
    lhand lfingers
    rclavicle rhumerus
    rhumerus rradius
    rradius rwrist
    rwrist rhand rthumb
    rhand rfingers
  end

#!OML:ASF F:\VICON\USERDATA\INSTALL\rory3\rory3.ASF
:FULLY-SPECIFIED
:DEGREES
1179
root 1.10067 17.3336 -1.15564 13.5764 -8.18278 4.36824
lowerback 13.2289 -2.60855 4.14596
upperback -0.734654 -2.48268 3.98806
thorax -8.23192 -1.28492 2.4246
lowerneck 0.882475 -11.8629 -18.7266
upperneck -4.03768 -15.9867 6.26436
head 0.571061 -7.86377 4.41834
rclavicle 3.89618e-014 -3.49861e-014
rhumerus 96.1069 -27.1171 -50.8796
rradius 121.648
rwrist 19.8905
rhand 12.302 12.5065
rfingers 7.12502
rthumb 37.3063 -13.4782
lclavicle 3.89618e-014 -3.49861e-014
lhumerus 79.1534 33.892 61.6368
lradius 141.603
lwrist -26.9335
lhand 13.014 44.5829
lfingers 7.12502
lthumb 37.9791 70.3878
rfemur -26.3317 15.4529 4.85655
rtibia 23.7103
rfoot -12.6053 -11.0324
rtoes -30.5633
lfemur -23.1479 -6.44732 -24.8221
ltibia 22.3987
lfoot -11.8859 8.90905
ltoes -19.1032
1180
root 1.07708 17.3365 -1.15732 13.6301 -8.23534 4.26675
lowerback 13.154 -2.5972 4.14495
upperback -0.71632 -2.47713 3.95294
thorax -8.17079 -1.28308 2.38117
lowerneck 0.594149 -11.8858 -18.7981
upperneck -3.77462 -15.9618 6.00838
head 0.673895 -7.85415 4.32488
rclavicle -3.18055e-015 1.90833e-014
rhumerus 96.2178 -27.1127 -50.6974
rradius 121.454
rwrist 19.7945
rhand 12.1832 12.5543
rfingers 7.12502
rthumb 37.1939 -13.4598
lclavicle -3.18055e-015 1.90833e-014
lhumerus 79.0511 33.947 61.7118
lradius 141.667
lwrist -26.9769
lhand 12.9641 44.7227
lfingers 7.12502
lthumb 37.9319 70.5404
rfemur -26.3755 15.4952 5.02482
rtibia 23.7767
rfoot -12.6186 -10.9078
rtoes -30.749
lfemur -23.1673 -6.42153 -24.6178
ltibia 22.3446
lfoot -11.9787 8.90166
ltoes -18.4211
1181
root 1.05176 17.338 -1.1597 13.6655 -8.3032 4.28192
lowerback 13.1346 -2.56503 4.03063
upperback -0.773892 -2.45812 3.86381
thorax -8.2207 -1.27148 2.34743
lowerneck 0.485522 -11.9353 -18.9166
upperneck -3.55079 -16.0057 5.80594
head 0.753246 -7.8799 4.26155
rclavicle 5.56597e-015 -9.54166e-015
rhumerus 96.2043 -27.0918 -50.5147
rradius 121.264
rwrist 19.6897
rhand 12.0827 12.6592
rfingers 7.12502
rthumb 37.099 -13.3796
lclavicle 5.56597e-015 -9.54166e-015
lhumerus 78.9618 33.9335 61.8077
lradius 141.715
lwrist -26.9563
lhand 13.2633 44.7295
lfingers 7.12502
lthumb 38.2145 70.47
rfemur -26.4626 15.555 5.06354
rtibia 23.8478
rfoot -12.6416 -10.8493
rtoes -30.8098
lfemur -23.1841 -6.33028 -24.5492
ltibia 22.2781
lfoot -11.8635 8.89806
ltoes -18.5533
1182
root 1.0272 17.3414 -1.15862 13.7152 -8.3194 4.29948
lowerback 13.0598 -2.54011 3.99927
upperback -0.8366 -2.4428 3.72983
thorax -8.25021 -1.26631 2.21709
lowerneck 0.686524 -11.918 -19.0875
upperneck -3.54679 -16.0224 5.81021
head 0.737696 -7.88798 4.2965
rclavicle 2.70347e-014 4.77083e-014
rhumerus 96.168 -27.0873 -50.3997
rradius 121.103
rwrist 19.592
rhand 12.1981 12.8579
rfingers 7.12502
rthumb 37.208 -13.1525
lclavicle 2.70347e-014 4.77083e-014
lhumerus 78.9034 33.819 61.9254
lradius 141.748
lwrist -26.9264
lhand 13.4746 44.6932
lfingers 7.12502
lthumb 38.4139 70.3786
rfemur -26.5579 15.548 5.13278
rtibia 23.8939
rfoot -12.6691 -10.8639
rtoes -30.4381
lfemur -23.1811 -6.33985 -24.4678
ltibia 22.2045
lfoot -11.7368 8.94363
ltoes -19.0916
1183
root 1.00604 17.3444 -1.15653 13.7545 -8.30924 4.28013
lowerback 12.9772 -2.55391 4.00151
upperback -0.85381 -2.47265 3.64215
thorax -8.22544 -1.28309 2.12421
lowerneck 1.07277 -11.9844 -18.6317
upperneck -4.24186 -16.2119 5.16359
head 0.395473 -7.95305 4.09797
rclavicle 2.66371e-014 -6.04305e-014
rhumerus 96.1876 -27.0442 -50.2239
rradius 120.965
rwrist 19.6011
rhand 12.065 12.9908
rfingers 7.12502
rthumb 37.0822 -13.0524
lclavicle 2.66371e-014 -6.04305e-014
lhumerus 78.814 33.8459 62.0553
lradius 141.736
lwrist -26.858
lhand 13.437 44.59
lfingers 7.12502
lthumb 38.3785 70.2852
rfemur -26.6001 15.4542 5.26454
rtibia 23.9016
rfoot -12.7024 -10.7885
rtoes -30.0404
lfemur -23.1598 -6.40186 -24.3481
ltibia 22.1429
lfoot -11.9701 8.96958
ltoes -17.9273
1184
root 0.98589 17.347 -1.15356 13.7417 -8.30001 4.24845
lowerback 12.9865 -2.55417 4.01323
upperback -0.943307 -2.47067 3.5862
thorax -8.33074 -1.28457 2.06211
lowerneck 1.32334 -11.9712 -18.7196
upperneck -4.23543 -16.2501 4.94334
head 0.348599 -7.96901 4.0605
rclavicle 3.73715e-014 -6.36111e-014
rhumerus 96.0949 -26.9367 -49.8946
rradius 120.81
rwrist 19.5461
rhand 11.9988 13.0199
rfingers 7.12502
rthumb 37.0196 -13.0395
lclavicle 3.73715e-014 -6.36111e-014
lhumerus 78.5625 33.8241 62.1544
lradius 141.749
lwrist -26.8468
lhand 13.348 44.5829
lfingers 7.12502
lthumb 38.2945 70.3014
rfemur -26.5224 15.3377 5.41716
rtibia 23.8838
rfoot -12.7365 -10.5901
rtoes -30.3949
lfemur -23.0832 -6.52278 -24.2161
ltibia 22.1017
lfoot -11.9838 9.11537
ltoes -18.1248
1185
root 0.963549 17.3485 -1.1526 13.7703 -8.31179 4.12702
lowerback 12.9916 -2.55735 4.11289
upperback -1.04063 -2.45866 3.53048
thorax -8.44637 -1.2853 1.94917
lowerneck 1.27665 -11.9441 -18.9534
upperneck -3.83035 -16.1997 4.79202
head 0.476347 -7.95572 4.02826
rclavicle -4.37326e-015 3.18055e-015
rhumerus 96.0477 -26.8234 -49.6467
rradius 120.657
rwrist 19.4177
rhand 12.0921 13.0193
rfingers 7.12502
rthumb 37.1079 -13.0172
lclavicle -4.37326e-015 3.18055e-015
lhumerus 78.3326 33.8441 62.1998
lradius 141.797
lwrist -26.9482
lhand 13.5187 44.7431
lfingers 7.12502
lthumb 38.4555 70.4169
rfemur -26.4911 15.3412 5.64313
rtibia 23.8458
rfoot -12.726 -10.533
rtoes -30.9999
lfemur -23.07 -6.59496 -23.9813
ltibia 22.0954
lfoot -11.5583 9.38791
ltoes -21.4012
1186
root 0.938534 17.3504 -1.15425 13.8041 -8.30251 4.03216
lowerback 13.0035 -2.56158 4.16325
upperback -1.09758 -2.45879 3.45655
thorax -8.52062 -1.28995 1.84515
lowerneck 1.23226 -11.972 -19.1069
upperneck -3.61735 -16.2258 4.64575
head 0.54826 -7.97384 3.99121
rclavicle 3.97569e-015 -2.22639e-014
rhumerus 96.0101 -26.7985 -49.4427
rradius 120.511
rwrist 19.2944
rhand 12.2223 13.1448
rfingers 7.12502
rthumb 37.2309 -12.8596
lclavicle 3.97569e-015 -2.22639e-014
lhumerus 78.2682 33.871 62.3129
lradius 141.788
lwrist -26.9864
lhand 13.6837 44.8098
lfingers 7.12502
lthumb 38.6112 70.4401
rfemur -26.4979 15.4178 5.83053
rtibia 23.8106
rfoot -12.6634 -10.5805
rtoes -30.6831
lfemur -23.0867 -6.62661 -23.7688
ltibia 22.0932
lfoot -11.3653 9.55248
ltoes -23.2153
1187
root 0.913933 17.3539 -1.15374 13.8248 -8.36205 3.94712
lowerback 12.9854 -2.54179 4.28125
upperback -1.10161 -2.42856 3.29017
thorax -8.52692 -1.28498 1.59389
lowerneck 1.12612 -12.0648 -19.0974
upperneck -3.50654 -16.3244 4.55666
head 0.600118 -8.02595 3.94559
rclavicle 4.6118e-014 -1.90833e-014
rhumerus 95.9717 -26.8812 -49.3207
rradius 120.394
rwrist 19.1748
rhand 12.3856 13.2565
rfingers 7.12502
rthumb 37.3853 -12.7073
lclavicle 4.6118e-014 -1.90833e-014
lhumerus 78.3472 33.8292 62.4511
lradius 141.755
lwrist -26.9673
lhand 13.7904 44.8594
lfingers 7.12502
lthumb 38.7119 70.4614
rfemur -26.5119 15.4907 6.00502
rtibia 23.7972
rfoot -12.6944 -10.547
rtoes -30.0306
lfemur -23.0781 -6.58719 -23.586
ltibia 22.0842
lfoot -11.4584 9.59669
ltoes -23.1803
1188
root 0.89156 17.3556 -1.1509 13.8237 -8.43645 3.95931
lowerback 12.9116 -2.52965 4.32976
upperback -1.1206 -2.42412 3.10719
thorax -8.51513 -1.28987 1.36697
lowerneck 0.991447 -12.0709 -19.1406
upperneck -3.14065 -16.2956 4.42935
head 0.721126 -8.02495 3.89079
rclavicle -2.22639e-014 -4.45278e-014
rhumerus 95.8957 -26.91 -49.1804
rradius 120.253
rwrist 19.0436
rhand 12.415 13.4512
rfingers 7.12502
rthumb 37.4131 -12.5053
lclavicle -2.22639e-014 -4.45278e-014
lhumerus 78.234 33.8034 62.4528
lradius 141.754
lwrist -26.9886
lhand 13.9186 44.8769
lfingers 7.12502
lthumb 38.8328 70.4447
rfemur -26.5368 15.3993 6.10144
rtibia 23.8236
rfoot -12.7426 -10.3885
rtoes -30.1211
lfemur -23.0195 -6.60848 -23.5151
ltibia 22.0313
lfoot -11.7655 9.58442
ltoes -21.0213
1189
root 0.869104 17.3566 -1.15098 13.8676 -8.45273 4.00955
lowerback 12.7996 -2.54897 4.1995
upperback -1.15802 -2.4811 3.04963
thorax -8.4887 -1.31332 1.3857
lowerneck 0.860842 -11.9855 -19.192
upperneck -2.79177 -16.15 4.11029
head 0.80711 -7.96325 3.79161
rclavicle -6.91771e-014 -4.77083e-015
rhumerus 95.9357 -26.8805 -48.9189
rradius 120.086
rwrist 18.9003
rhand 12.3033 13.3882
rfingers 7.12502
rthumb 37.3075 -12.5961
lclavicle -6.91771e-014 -4.77083e-015
lhumerus 77.9433 33.9657 62.4395
lradius 141.803
lwrist -26.9253
lhand 13.8358 45.0116
lfingers 7.12502
lthumb 38.7547 70.6015
rfemur -26.6126 15.278 6.14645
rtibia 23.8542
rfoot -12.6931 -10.258
rtoes -30.6237
lfemur -23.0215 -6.64025 -23.4702
ltibia 21.9619
lfoot -12.0353 9.50649
ltoes -18.6318
1190
root 0.844348 17.3575 -1.15245 13.9334 -8.48161 4.01671
lowerback 12.7515 -2.53908 4.04414
upperback -1.21685 -2.49443 3.03266
thorax -8.51849 -1.31377 1.45723
lowerneck 0.740355 -11.9631 -19.3671
upperneck -2.50731 -16.0889 3.91309
head 0.900807 -7.94203 3.74034
rclavicle 3.02153e-014 -1.74931e-014
rhumerus 95.918 -26.8639 -48.539
rradius 119.905
rwrist 18.8326
rhand 12.095 13.183
rfingers 7.12502
rthumb 37.1105 -12.8528
lclavicle 3.02153e-014 -1.74931e-014
lhumerus 77.7072 34.1548 62.5668
lradius 141.916
lwrist -26.7955
lhand 13.8345 45.1484
lfingers 7.12502
lthumb 38.7534 70.7386
rfemur -26.7203 15.2853 6.20995
rtibia 23.9014
rfoot -12.6542 -10.2387
rtoes -30.5811
lfemur -23.0458 -6.69156 -23.3687
ltibia 21.8857
lfoot -11.9304 9.61956
ltoes -18.6551
1191
root 0.819641 17.3615 -1.15196 13.9839 -8.57858 3.91563
lowerback 12.797 -2.50381 3.98144
upperback -1.31917 -2.45112 3.0207
thorax -8.65306 -1.29139 1.47764
lowerneck 0.43437 -11.9241 -19.4865
upperneck -1.9786 -15.9582 3.53429
head 1.07105 -7.89691 3.61196
rclavicle 2.10712e-014 -3.97569e-014
rhumerus 95.9089 -26.7843 -48.2381
rradius 119.81
rwrist 18.3729
rhand 12.3755 13.2885
rfingers 7.12502
rthumb 37.3757 -12.6779
lclavicle 2.10712e-014 -3.97569e-014
lhumerus 77.4456 34.299 62.7235
lradius 141.98
lwrist -26.6764
lhand 13.7669 45.1011
lfingers 7.12502
lthumb 38.6897 70.7093
rfemur -26.8314 15.3704 6.39388
rtibia 23.9761
rfoot -12.7436 -10.2312
rtoes -30.1971
lfemur -23.017 -6.75916 -23.1461
ltibia 21.8081
lfoot -11.9999 9.73138
ltoes -18.0706
1192
root 0.793099 17.3652 -1.15199 14.0403 -8.70802 3.80612
lowerback 12.7774 -2.45887 3.95699
upperback -1.41392 -2.398 2.95638
thorax -8.74601 -1.26738 1.41479
lowerneck -0.128302 -11.8835 -19.5093
upperneck -1.06244 -15.753 3.00172
head 1.37381 -7.83508 3.39965
rclavicle -5.88403e-014 1.90833e-014
rhumerus 95.9467 -26.7175 -48.1123
rradius 119.76
rwrist 17.3789
rhand 13.2782 13.3903
rfingers 7.12502
rthumb 38.2286 -12.3463
lclavicle -5.88403e-014 1.90833e-014
lhumerus 77.2285 34.3472 62.8454
lradius 141.994
lwrist -26.5486
lhand 13.9252 45.0953
lfingers 7.12502
lthumb 38.839 70.6612
rfemur -27.0114 15.3761 6.61811
rtibia 24.0876
rfoot -12.8689 -10.1285
rtoes -29.7906
lfemur -22.9853 -6.65339 -22.9461
ltibia 21.7077
lfoot -11.8234 9.87608
ltoes -19.5678
1193
root 0.76689 17.3641 -1.15389 14.0445 -8.80508 3.89008
lowerback 12.7636 -2.42265 3.83017
upperback -1.50473 -2.37977 2.8063
thorax -8.83722 -1.25749 1.32451
lowerneck -0.285313 -11.8735 -19.535
upperneck -0.600275 -15.6863 2.65325
head 1.50586 -7.82389 3.27735
rclavicle 2.70347e-014 -2.38542e-014
rhumerus 95.9113 -26.7464 -47.9281
rradius 119.658
rwrist 16.6625
rhand 13.9257 13.5517
rfingers 7.12502
rthumb 38.8395 -12.0141
lclavicle 2.70347e-014 -2.38542e-014
lhumerus 77.0615 34.2935 62.9471
lradius 141.966
lwrist -26.469
lhand 14.0499 45.0148
lfingers 7.12502
lthumb 38.9566 70.5473
rfemur -27.1648 15.3569 6.61365
rtibia 24.2482
rfoot -12.9451 -10.0284
rtoes -29.8089
lfemur -22.9056 -6.58258 -22.9558
ltibia 21.5788
lfoot -11.6678 9.9721
ltoes -20.8842
